<svg width="178" height="98" viewBox="0 0 178 98" fill="none" xmlns="http://www.w3.org/2000/svg">
<g clip-path="url(#clip0_126_169)">
<path d="M17.7957 39.6455C19.3724 47.4168 35.5909 52.823 40.8844 39.3076C37.7308 43.5875 27.9322 50.0073 17.7957 39.6455Z" fill="white"/>
<path d="M73.5705 29.5084L72.7039 27.4118H68.1607L67.2942 29.5084H64.9736L69.335 19.7234H71.5716L75.9469 29.5084H73.5705ZM68.8876 25.6924H71.991L70.4394 21.946L68.8876 25.6924ZM81.5085 29.6763C78.475 29.6763 76.2105 27.5654 76.2105 24.6159C76.2105 21.6664 78.475 19.5557 81.5225 19.5557C83.2139 19.5557 84.6256 20.1707 85.5483 21.289L84.0945 22.6309C83.4376 21.8761 82.6127 21.4847 81.6342 21.4847C79.8031 21.4847 78.5031 22.7708 78.5031 24.6159C78.5031 26.4612 79.8031 27.7472 81.6342 27.7472C82.6127 27.7472 83.4376 27.3557 84.0945 26.5869L85.5483 27.9289C84.6256 29.0611 83.2139 29.6763 81.5085 29.6763ZM91.5556 29.6763C88.5223 29.6763 86.2576 27.5654 86.2576 24.6159C86.2576 21.6664 88.5223 19.5557 91.5696 19.5557C93.261 19.5557 94.6729 20.1707 95.5953 21.289L94.1415 22.6309C93.4847 21.8761 92.6598 21.4847 91.6813 21.4847C89.8502 21.4847 88.5502 22.7708 88.5502 24.6159C88.5502 26.4612 89.8502 27.7472 91.6813 27.7472C92.6598 27.7472 93.4847 27.3557 94.1415 26.5869L95.5953 27.9289C94.6729 29.0611 93.261 29.6763 91.5556 29.6763ZM105.791 29.5084H103.359L101.472 26.7826H101.36H99.3891V29.5084H97.1246V19.7234H101.36C103.974 19.7234 105.61 21.0793 105.61 23.274C105.61 24.7418 104.869 25.8181 103.597 26.3632L105.791 29.5084ZM103.317 23.274C103.317 22.1976 102.618 21.5686 101.234 21.5686H99.3891V24.9794H101.234C102.618 24.9794 103.317 24.3363 103.317 23.274ZM109.654 27.6913H114.98V29.5084H107.404V19.7234H114.799V21.5406H109.654V23.6653H114.197V25.4266H109.654V27.6913ZM116.782 29.5084V19.7234H121.227C124.428 19.7234 126.623 21.6525 126.623 24.6159C126.623 27.5794 124.428 29.5084 121.227 29.5084H116.782ZM119.047 27.6492H121.116C123.059 27.6492 124.331 26.4891 124.331 24.6159C124.331 22.7429 123.059 21.5826 121.116 21.5826H119.047V27.6492ZM128.331 29.5084V19.7234H130.595V29.5084H128.331ZM134.944 29.5084V21.5686H131.813V19.7234H140.34V21.5686H137.209V29.5084H134.944ZM143.809 27.6913H149.135V29.5084H141.559V19.7234H148.953V21.5406H143.809V23.6653H148.352V25.4266H143.809V27.6913ZM150.937 29.5084V19.7234H155.382C158.583 19.7234 160.778 21.6525 160.778 24.6159C160.778 27.5794 158.583 29.5084 155.382 29.5084H150.937ZM153.201 27.6492H155.27C157.213 27.6492 158.485 26.4891 158.485 24.6159C158.485 22.7429 157.213 21.5826 155.27 21.5826H153.201V27.6492ZM73.4448 41.5396C74.535 41.8892 75.234 42.7278 75.234 43.9579C75.234 45.6494 73.8922 46.6279 71.32 46.6279H66.2598V36.8428H71.0404C73.4867 36.8428 74.7448 37.8634 74.7448 39.387C74.7448 40.3656 74.2415 41.1204 73.4448 41.5396ZM70.7609 38.5482H68.5103V40.8548H70.7609C71.8651 40.8548 72.4663 40.4633 72.4663 39.6945C72.4663 38.9257 71.8651 38.5482 70.7609 38.5482ZM71.1524 44.9225C72.3264 44.9225 72.9555 44.5591 72.9555 43.7203C72.9555 42.8956 72.3264 42.5041 71.1524 42.5041H68.5103V44.9225H71.1524ZM81.2959 46.7957C78.5142 46.7957 76.8646 45.202 76.8646 42.3226V36.8428H79.1291V42.2386C79.1291 44.0978 79.9398 44.8666 81.3098 44.8666C82.6936 44.8666 83.4905 44.0978 83.4905 42.2386V36.8428H85.7271V42.3226C85.7271 45.202 84.0776 46.7957 81.2959 46.7957ZM91.1799 46.7957C89.6283 46.7957 88.0628 46.3344 87.196 45.6634L87.9648 43.9579C88.7895 44.5591 90.0196 44.9783 91.1938 44.9783C92.5359 44.9783 93.081 44.5312 93.081 43.93C93.081 42.0989 87.3917 43.357 87.3917 39.7224C87.3917 38.0589 88.7336 36.6752 91.5153 36.6752C92.7454 36.6752 94.0037 36.9687 94.9121 37.5417L94.2132 39.2611C93.3047 38.7439 92.3681 38.4923 91.5013 38.4923C90.1595 38.4923 89.6423 38.9956 89.6423 39.6107C89.6423 41.4139 95.3316 40.1698 95.3316 43.7622C95.3316 45.3978 93.9755 46.7957 91.1799 46.7957ZM96.8789 46.6279V36.8428H99.1436V46.6279H96.8789ZM108.203 36.8428H110.44V46.6279H108.581L103.702 40.687V46.6279H101.466V36.8428H103.339L108.203 42.7837V36.8428ZM115.006 44.8108H120.331V46.6279H112.755V36.8428H120.15V38.6601H115.006V40.7848H119.549V42.546H115.006V44.8108ZM125.348 46.7957C123.797 46.7957 122.231 46.3344 121.364 45.6634L122.133 43.9579C122.958 44.5591 124.188 44.9783 125.362 44.9783C126.704 44.9783 127.249 44.5312 127.249 43.93C127.249 42.0989 121.56 43.357 121.56 39.7224C121.56 38.0589 122.902 36.6752 125.684 36.6752C126.914 36.6752 128.172 36.9687 129.081 37.5417L128.382 39.2611C127.473 38.7439 126.537 38.4923 125.67 38.4923C124.328 38.4923 123.811 38.9956 123.811 39.6107C123.811 41.4139 129.5 40.1698 129.5 43.7622C129.5 45.3978 128.144 46.7957 125.348 46.7957ZM134.263 46.7957C132.711 46.7957 131.145 46.3344 130.278 45.6634L131.047 43.9579C131.872 44.5591 133.102 44.9783 134.277 44.9783C135.618 44.9783 136.164 44.5312 136.164 43.93C136.164 42.0989 130.474 43.357 130.474 39.7224C130.474 38.0589 131.816 36.6752 134.598 36.6752C135.828 36.6752 137.086 36.9687 137.995 37.5417L137.296 39.2611C136.387 38.7439 135.451 38.4923 134.584 38.4923C133.242 38.4923 132.725 38.9956 132.725 39.6107C132.725 41.4139 138.414 40.1698 138.414 43.7622C138.414 45.3978 137.058 46.7957 134.263 46.7957ZM151.231 46.6279L150.364 44.5312H145.821L144.955 46.6279H142.634L146.996 36.8428H149.232L153.608 46.6279H151.231ZM146.548 42.8118H149.652L148.1 39.0654L146.548 42.8118ZM160.655 40.8827V42.5882H158.223V44.9644H156.42V42.5882H154.002V40.8827H156.42V38.5063H158.223V40.8827H160.655Z" fill="white"/>
<path d="M172.321 0.563477H4.95609C2.53018 0.563477 0.563599 2.53006 0.563599 4.95597V61.0447C0.563599 63.4706 2.53018 65.4372 4.95609 65.4372H172.321C174.747 65.4372 176.714 63.4706 176.714 61.0447V4.95597C176.714 2.53006 174.747 0.563477 172.321 0.563477Z" stroke="white" stroke-width="1.12628"/>
<path fill-rule="evenodd" clip-rule="evenodd" d="M29.3964 42.1226C35.6788 42.1226 40.7718 36.8279 40.7718 30.2966C40.7718 23.7653 35.6788 18.4707 29.3964 18.4707C23.114 18.4707 18.0209 23.7653 18.0209 30.2966C18.0209 36.8279 23.114 42.1226 29.3964 42.1226ZM32.6479 41.2936C35.0564 40.5589 35.5098 35.0493 33.6607 28.9872C31.8118 22.9254 28.3604 18.6068 25.9517 19.3415C23.5433 20.0761 23.0899 25.5859 24.939 31.6477C26.7881 37.7096 30.2395 42.0282 32.6479 41.2936Z" fill="white"/>
<path d="M55.7513 64.8737V0" stroke="white" stroke-width="1.12628"/>
</g>
<path d="M3.728 91V81.432H0.272V79.8H9.056V81.432H5.6V91H3.728ZM14.5008 84.632C14.2128 84.504 13.8661 84.44 13.4608 84.44C12.8208 84.44 12.2874 84.7387 11.8608 85.336C11.4448 85.9227 11.2368 86.808 11.2368 87.992V91H9.49275V82.936H11.2368V84.472C11.4501 83.992 11.7914 83.5973 12.2608 83.288C12.7301 82.968 13.2101 82.808 13.7008 82.808C14.0528 82.808 14.3514 82.856 14.5968 82.952L14.5008 84.632ZM23.1016 82.936V91H21.3576V89.656C21.0803 90.104 20.7123 90.4613 20.2536 90.728C19.795 90.9947 19.283 91.128 18.7176 91.128C17.843 91.128 17.1336 90.8667 16.5896 90.344C16.0563 89.8107 15.7896 89.112 15.7896 88.248V82.936H17.5336V87.848C17.5336 88.36 17.683 88.776 17.9816 89.096C18.2803 89.4053 18.6856 89.56 19.1976 89.56C19.8696 89.56 20.3976 89.288 20.7816 88.744C21.1656 88.2 21.3576 87.4427 21.3576 86.472V82.936H23.1016ZM27.9486 91.128C27.042 91.128 26.29 90.8987 25.6926 90.44C25.106 89.9707 24.706 89.4107 24.4926 88.76L25.9326 88.152C26.2633 89.208 26.9353 89.736 27.9486 89.736C28.354 89.736 28.6846 89.6347 28.9406 89.432C29.2073 89.2293 29.3406 88.9787 29.3406 88.68C29.3406 88.36 29.186 88.1093 28.8766 87.928C28.5673 87.7467 28.1886 87.608 27.7406 87.512C27.3033 87.4053 26.866 87.2827 26.4286 87.144C25.9913 86.9947 25.618 86.744 25.3086 86.392C24.9993 86.04 24.8446 85.5813 24.8446 85.016C24.8446 84.376 25.1006 83.848 25.6126 83.432C26.1353 83.016 26.8286 82.808 27.6926 82.808C28.45 82.808 29.122 82.9947 29.7086 83.368C30.2953 83.7307 30.674 84.2053 30.8446 84.792L29.4046 85.4C29.3086 85.016 29.0953 84.712 28.7646 84.488C28.4446 84.264 28.0926 84.152 27.7086 84.152C27.3246 84.152 27.0206 84.2267 26.7966 84.376C26.5726 84.5147 26.4606 84.7173 26.4606 84.984C26.4606 85.2613 26.6153 85.48 26.9246 85.64C27.234 85.7893 27.6073 85.912 28.0446 86.008C28.4926 86.104 28.9406 86.2267 29.3886 86.376C29.8366 86.5253 30.2153 86.792 30.5246 87.176C30.834 87.56 30.9886 88.056 30.9886 88.664C30.9886 89.368 30.706 89.9547 30.1406 90.424C29.5753 90.8933 28.8446 91.128 27.9486 91.128ZM37.0219 90.936C36.6379 91.064 36.2112 91.128 35.7419 91.128C34.9419 91.128 34.2965 90.904 33.8059 90.456C33.3259 90.008 33.0859 89.3413 33.0859 88.456V84.424H31.6779V82.936H33.0859V80.536H34.8299V82.936H36.9099V84.424H34.8299V88.36C34.8299 88.7547 34.9259 89.0587 35.1179 89.272C35.3205 89.4747 35.5925 89.576 35.9339 89.576C36.3179 89.576 36.6432 89.512 36.9099 89.384L37.0219 90.936ZM45.7929 86.664C45.7929 86.952 45.7822 87.192 45.7609 87.384H39.6009C39.6755 88.0773 39.9209 88.6267 40.3369 89.032C40.7635 89.4373 41.2969 89.64 41.9369 89.64C42.4702 89.64 42.9129 89.5227 43.2649 89.288C43.6169 89.0427 43.8462 88.7013 43.9529 88.264L45.6009 88.68C45.3875 89.4587 44.9555 90.0613 44.3049 90.488C43.6542 90.9147 42.8542 91.128 41.9049 91.128C40.6782 91.128 39.7022 90.7227 38.9769 89.912C38.2515 89.0907 37.8889 88.1093 37.8889 86.968C37.8889 85.816 38.2355 84.8347 38.9289 84.024C39.6329 83.2133 40.5982 82.808 41.8249 82.808C43.0622 82.808 44.0329 83.1867 44.7369 83.944C45.4409 84.7013 45.7929 85.608 45.7929 86.664ZM39.6809 86.056H43.9369C43.8835 85.4907 43.6702 85.0373 43.2969 84.696C42.9342 84.3547 42.4435 84.184 41.8249 84.184C41.2702 84.184 40.8062 84.3493 40.4329 84.68C40.0595 85 39.8089 85.4587 39.6809 86.056ZM50.8386 91.128C49.6333 91.128 48.6893 90.7493 48.0066 89.992C47.324 89.224 46.9826 88.216 46.9826 86.968C46.9826 85.7307 47.3186 84.728 47.9906 83.96C48.6733 83.192 49.612 82.808 50.8066 82.808C51.3186 82.808 51.7933 82.9147 52.2306 83.128C52.6786 83.3307 53.0253 83.6027 53.2706 83.944V79.672H55.0146V91H53.2706V89.976C53.0786 90.3173 52.7586 90.5947 52.3106 90.808C51.8626 91.0213 51.372 91.128 50.8386 91.128ZM49.3666 88.888C49.7933 89.368 50.3586 89.608 51.0626 89.608C51.7666 89.608 52.332 89.368 52.7586 88.888C53.1853 88.3973 53.3986 87.7573 53.3986 86.968C53.3986 86.168 53.1853 85.528 52.7586 85.048C52.332 84.568 51.7666 84.328 51.0626 84.328C50.3586 84.328 49.7933 84.568 49.3666 85.048C48.94 85.528 48.7266 86.168 48.7266 86.968C48.7266 87.7573 48.94 88.3973 49.3666 88.888ZM60.9946 91V79.8H65.2506C66.3066 79.8 67.1493 80.056 67.7786 80.568C68.4186 81.0693 68.7386 81.7733 68.7386 82.68C68.7386 83.1707 68.6 83.6187 68.3226 84.024C68.0453 84.4187 67.7146 84.7013 67.3306 84.872C67.9173 85.0853 68.3866 85.432 68.7386 85.912C69.0906 86.3813 69.2666 86.9787 69.2666 87.704C69.2666 88.728 68.92 89.5333 68.2266 90.12C67.544 90.7067 66.616 91 65.4426 91H60.9946ZM62.8666 84.264H65.1386C66.344 84.264 66.9466 83.7787 66.9466 82.808C66.9466 81.8267 66.3386 81.336 65.1226 81.336H62.8666V84.264ZM62.8666 89.352H65.2186C66.7013 89.352 67.4426 88.776 67.4426 87.624C67.4426 86.4613 66.7013 85.88 65.2186 85.88H62.8666V89.352ZM78.1954 82.936V91H76.4514V89.656C76.174 90.104 75.806 90.4613 75.3474 90.728C74.8887 90.9947 74.3767 91.128 73.8114 91.128C72.9367 91.128 72.2274 90.8667 71.6834 90.344C71.15 89.8107 70.8834 89.112 70.8834 88.248V82.936H72.6274V87.848C72.6274 88.36 72.7767 88.776 73.0754 89.096C73.374 89.4053 73.7794 89.56 74.2914 89.56C74.9634 89.56 75.4914 89.288 75.8754 88.744C76.2594 88.2 76.4514 87.4427 76.4514 86.472V82.936H78.1954ZM83.0424 91.128C82.1357 91.128 81.3837 90.8987 80.7864 90.44C80.1997 89.9707 79.7997 89.4107 79.5864 88.76L81.0264 88.152C81.357 89.208 82.029 89.736 83.0424 89.736C83.4477 89.736 83.7784 89.6347 84.0344 89.432C84.301 89.2293 84.4344 88.9787 84.4344 88.68C84.4344 88.36 84.2797 88.1093 83.9704 87.928C83.661 87.7467 83.2824 87.608 82.8344 87.512C82.397 87.4053 81.9597 87.2827 81.5224 87.144C81.085 86.9947 80.7117 86.744 80.4024 86.392C80.093 86.04 79.9384 85.5813 79.9384 85.016C79.9384 84.376 80.1944 83.848 80.7064 83.432C81.229 83.016 81.9224 82.808 82.7864 82.808C83.5437 82.808 84.2157 82.9947 84.8024 83.368C85.389 83.7307 85.7677 84.2053 85.9384 84.792L84.4984 85.4C84.4024 85.016 84.189 84.712 83.8584 84.488C83.5384 84.264 83.1864 84.152 82.8024 84.152C82.4184 84.152 82.1144 84.2267 81.8904 84.376C81.6664 84.5147 81.5544 84.7173 81.5544 84.984C81.5544 85.2613 81.709 85.48 82.0184 85.64C82.3277 85.7893 82.701 85.912 83.1384 86.008C83.5864 86.104 84.0344 86.2267 84.4824 86.376C84.9304 86.5253 85.309 86.792 85.6184 87.176C85.9277 87.56 86.0824 88.056 86.0824 88.664C86.0824 89.368 85.7997 89.9547 85.2344 90.424C84.669 90.8933 83.9384 91.128 83.0424 91.128ZM88.513 81.592C88.193 81.592 87.9263 81.4853 87.713 81.272C87.4997 81.048 87.393 80.7813 87.393 80.472C87.393 80.152 87.4997 79.8853 87.713 79.672C87.9263 79.448 88.193 79.336 88.513 79.336C88.8437 79.336 89.1157 79.448 89.329 79.672C89.553 79.8853 89.665 80.152 89.665 80.472C89.665 80.7813 89.553 81.048 89.329 81.272C89.1157 81.4853 88.8437 81.592 88.513 81.592ZM87.649 91V82.936H89.393V91H87.649ZM91.4615 91V82.936H93.2055V84.28C93.8242 83.2987 94.7095 82.808 95.8615 82.808C96.7255 82.808 97.4242 83.0747 97.9575 83.608C98.5015 84.1307 98.7735 84.824 98.7735 85.688V91H97.0295V86.088C97.0295 85.576 96.8802 85.1653 96.5815 84.856C96.2828 84.536 95.8828 84.376 95.3815 84.376C94.6988 84.376 94.1655 84.648 93.7815 85.192C93.3975 85.736 93.2055 86.4933 93.2055 87.464V91H91.4615ZM108.293 86.664C108.293 86.952 108.282 87.192 108.261 87.384H102.101C102.176 88.0773 102.421 88.6267 102.837 89.032C103.264 89.4373 103.797 89.64 104.437 89.64C104.97 89.64 105.413 89.5227 105.765 89.288C106.117 89.0427 106.346 88.7013 106.453 88.264L108.101 88.68C107.888 89.4587 107.456 90.0613 106.805 90.488C106.154 90.9147 105.354 91.128 104.405 91.128C103.178 91.128 102.202 90.7227 101.477 89.912C100.752 89.0907 100.389 88.1093 100.389 86.968C100.389 85.816 100.736 84.8347 101.429 84.024C102.133 83.2133 103.098 82.808 104.325 82.808C105.562 82.808 106.533 83.1867 107.237 83.944C107.941 84.7013 108.293 85.608 108.293 86.664ZM102.181 86.056H106.437C106.384 85.4907 106.17 85.0373 105.797 84.696C105.434 84.3547 104.944 84.184 104.325 84.184C103.77 84.184 103.306 84.3493 102.933 84.68C102.56 85 102.309 85.4587 102.181 86.056ZM112.621 91.128C111.714 91.128 110.962 90.8987 110.365 90.44C109.778 89.9707 109.378 89.4107 109.165 88.76L110.605 88.152C110.935 89.208 111.607 89.736 112.621 89.736C113.026 89.736 113.357 89.6347 113.613 89.432C113.879 89.2293 114.013 88.9787 114.013 88.68C114.013 88.36 113.858 88.1093 113.549 87.928C113.239 87.7467 112.861 87.608 112.413 87.512C111.975 87.4053 111.538 87.2827 111.101 87.144C110.663 86.9947 110.29 86.744 109.981 86.392C109.671 86.04 109.517 85.5813 109.517 85.016C109.517 84.376 109.773 83.848 110.285 83.432C110.807 83.016 111.501 82.808 112.365 82.808C113.122 82.808 113.794 82.9947 114.381 83.368C114.967 83.7307 115.346 84.2053 115.517 84.792L114.077 85.4C113.981 85.016 113.767 84.712 113.437 84.488C113.117 84.264 112.765 84.152 112.381 84.152C111.997 84.152 111.693 84.2267 111.469 84.376C111.245 84.5147 111.133 84.7173 111.133 84.984C111.133 85.2613 111.287 85.48 111.597 85.64C111.906 85.7893 112.279 85.912 112.717 86.008C113.165 86.104 113.613 86.2267 114.061 86.376C114.509 86.5253 114.887 86.792 115.197 87.176C115.506 87.56 115.661 88.056 115.661 88.664C115.661 89.368 115.378 89.9547 114.813 90.424C114.247 90.8933 113.517 91.128 112.621 91.128ZM120.011 91.128C119.104 91.128 118.352 90.8987 117.755 90.44C117.168 89.9707 116.768 89.4107 116.555 88.76L117.995 88.152C118.326 89.208 118.998 89.736 120.011 89.736C120.416 89.736 120.747 89.6347 121.003 89.432C121.27 89.2293 121.403 88.9787 121.403 88.68C121.403 88.36 121.248 88.1093 120.939 87.928C120.63 87.7467 120.251 87.608 119.803 87.512C119.366 87.4053 118.928 87.2827 118.491 87.144C118.054 86.9947 117.68 86.744 117.371 86.392C117.062 86.04 116.907 85.5813 116.907 85.016C116.907 84.376 117.163 83.848 117.675 83.432C118.198 83.016 118.891 82.808 119.755 82.808C120.512 82.808 121.184 82.9947 121.771 83.368C122.358 83.7307 122.736 84.2053 122.907 84.792L121.467 85.4C121.371 85.016 121.158 84.712 120.827 84.488C120.507 84.264 120.155 84.152 119.771 84.152C119.387 84.152 119.083 84.2267 118.859 84.376C118.635 84.5147 118.523 84.7173 118.523 84.984C118.523 85.2613 118.678 85.48 118.987 85.64C119.296 85.7893 119.67 85.912 120.107 86.008C120.555 86.104 121.003 86.2267 121.451 86.376C121.899 86.5253 122.278 86.792 122.587 87.176C122.896 87.56 123.051 88.056 123.051 88.664C123.051 89.368 122.768 89.9547 122.203 90.424C121.638 90.8933 120.907 91.128 120.011 91.128Z" fill="white"/>
<defs>
<clipPath id="clip0_126_169">
<rect width="177.276" height="66" fill="white"/>
</clipPath>
</defs>
</svg>
