<svg width="108" height="60" viewBox="0 0 108 60" fill="none" xmlns="http://www.w3.org/2000/svg">
<g clip-path="url(#clip0_596_6373)">
<path d="M107.132 0.62793H0.627747V43.3443H107.132V0.62793Z" stroke="white" stroke-width="1.20314"/>
<path d="M90.5116 32.1074C84.2631 32.1074 78.9353 26.7468 78.9353 20.3996C78.9353 14.0523 84.2631 8.72461 90.5116 8.72461C93.6361 8.72461 96.5304 10.0401 98.6349 12.1778L96.8919 13.9537C95.2478 12.2107 92.9785 11.0925 90.5116 11.0925C85.6446 11.0925 81.5336 15.3678 81.5336 20.3996C81.5336 25.4642 85.6446 29.7395 90.5116 29.7395C92.9785 29.7395 95.2478 28.6214 96.8919 26.8783L98.6349 28.6542C96.5304 30.759 93.6361 32.1074 90.5116 32.1074Z" fill="white"/>
<path d="M49.7472 31.7136V9.12012H52.3125L66.3223 27.5041V9.12012H68.8876V31.7136H66.3223L52.3125 13.3297V31.7136H49.7472Z" fill="white"/>
<path d="M36.2511 36.2509V7.68945H38.762V36.2509H36.2511Z" fill="white"/>
<path d="M18.6158 32.0752C14.8996 32.0752 11.9726 30.7268 9.70337 28.4905L11.3148 26.4843C13.2223 28.3918 15.5573 29.7402 18.7145 29.7402C22.2005 29.7402 23.9764 27.8328 23.9764 25.7937C23.9764 23.393 21.8387 22.4392 17.8923 21.5184C13.3538 20.466 10.4927 19.0519 10.4927 15.1383C10.4927 11.5207 13.7156 8.69238 18.0567 8.69238C21.4112 8.69238 23.9107 10.0079 25.9826 11.9153L24.4039 13.9214C22.5294 12.1126 20.2931 11.0274 17.9252 11.0274C15.1298 11.0274 13.0908 12.8691 13.0908 14.941C13.0908 17.2759 15.3271 18.0982 19.1749 19.019C23.4831 20.0385 26.5745 21.5842 26.5745 25.5635C26.5745 29.1483 23.8778 32.0752 18.6158 32.0752Z" fill="white"/>
<path d="M1.51599 58.5815V50.8571H4.65304C6.24967 50.8571 7.49775 51.8803 7.49775 53.3305C7.49775 54.7811 6.24967 55.8043 4.65304 55.8043H2.39302V58.5815H1.51599ZM2.39302 54.9726H4.49563C5.75497 54.9726 6.60946 54.3652 6.60946 53.3305C6.60946 52.2963 5.75497 51.6891 4.49563 51.6891H2.39302V54.9726ZM21.6713 58.5815L20.8955 56.8275H16.5891L15.8133 58.5815H14.8575L18.2644 50.8571H19.2202L22.6271 58.5815H21.6713ZM16.9489 55.9957H20.5357L18.7479 51.9365L16.9489 55.9957ZM36.4895 53.3305C36.4895 54.5452 35.6125 55.4669 34.3869 55.7258L36.3883 58.5815H35.3876L33.4312 55.8043H31.3848V58.5815H30.5078V50.8571H33.6448C35.2414 50.8571 36.4895 51.8803 36.4895 53.3305ZM31.3848 51.6891V54.9726H33.4874C34.7467 54.9726 35.6012 54.3652 35.6012 53.3305C35.6012 52.2963 34.7467 51.6891 33.4874 51.6891H31.3848ZM46.6697 58.5815V51.6891H44.0723V50.8571H50.144V51.6891H47.5467V58.5815H46.6697ZM58.3397 58.5815V50.8571H59.2164L64.0064 57.1424V50.8571H64.8837V58.5815H64.0064L59.2164 52.2963V58.5815H58.3397ZM79.0007 51.6891H74.3456V54.2303H78.5398V55.0625H74.3456V57.7497H79.0007V58.5815H73.4574V50.8571H79.0007V51.6891ZM93.1224 53.3305C93.1224 54.5452 92.2457 55.4669 91.02 55.7258L93.0214 58.5815H92.0207L90.0643 55.8043H88.018V58.5815H87.1407V50.8571H90.2778C91.8743 50.8571 93.1224 51.8803 93.1224 53.3305ZM88.018 51.6891V54.9726H90.1203C91.3794 54.9726 92.2342 54.3652 92.2342 53.3305C92.2342 52.2963 91.3794 51.6891 90.1203 51.6891H88.018ZM103.763 58.7054C102.493 58.7054 101.493 58.2446 100.716 57.4798L101.268 56.794C101.919 57.4458 102.718 57.9072 103.797 57.9072C104.989 57.9072 105.596 57.2549 105.596 56.5576C105.596 55.7368 104.866 55.4109 103.516 55.096C101.964 54.7361 100.986 54.2528 100.986 52.9147C100.986 51.6779 102.088 50.7109 103.572 50.7109C104.719 50.7109 105.574 51.1607 106.282 51.8129L105.742 52.4988C105.101 51.8803 104.337 51.5092 103.527 51.5092C102.572 51.5092 101.874 52.1389 101.874 52.8472C101.874 53.6454 102.639 53.9269 103.955 54.2418C105.428 54.5902 106.485 55.1185 106.485 56.4791C106.485 57.7047 105.563 58.7054 103.763 58.7054Z" fill="white"/>
</g>
<defs>
<clipPath id="clip0_596_6373">
<rect width="107.759" height="60" fill="white"/>
</clipPath>
</defs>
</svg>
