<svg width="85" height="72" viewBox="0 0 85 72" fill="none" xmlns="http://www.w3.org/2000/svg">
<g clip-path="url(#clip0_89_661)">
<path fill-rule="evenodd" clip-rule="evenodd" d="M42.2708 0C31.5208 0 22.7764 8.97106 22.7764 19.9998C22.7764 24.3737 24.1517 28.43 26.4896 31.7225L24.0598 39.1532L31.555 36.6963C34.6378 38.7892 38.3166 40 42.2821 40C53.0321 40 61.7764 31.0286 61.7764 20.0002C61.7764 8.97142 53.0321 0.000330607 42.2821 0.000330607L42.2708 0ZM36.8269 10.159C36.4488 9.23023 36.1622 9.19506 35.5894 9.17117C35.3943 9.15955 35.177 9.14795 34.936 9.14795C34.1908 9.14795 33.4116 9.37127 32.9417 9.86504C32.3688 10.4647 30.9476 11.8636 30.9476 14.7327C30.9476 17.6017 32.9876 20.3764 33.2625 20.7647C33.5491 21.1523 37.2396 27.1253 42.9697 29.5596C47.4507 31.4643 48.7804 31.2878 49.8002 31.0644C51.29 30.7353 53.1583 29.606 53.6282 28.2425C54.0982 26.8784 54.0982 25.7143 53.9604 25.4674C53.8229 25.2205 53.4445 25.0798 52.8717 24.7855C52.2988 24.4915 49.5137 23.0806 48.9864 22.8924C48.4706 22.6926 47.978 22.7633 47.5885 23.3278C47.0383 24.1155 46.4998 24.9153 46.0641 25.3971C45.7203 25.7734 45.1585 25.8205 44.6888 25.6204C44.0584 25.3503 42.2937 24.7148 40.116 22.7278C38.4312 21.1878 37.2852 19.2715 36.953 18.6954C36.6205 18.1077 36.9187 17.7663 37.182 17.449C37.4686 17.0844 37.7435 16.8259 38.0301 16.4847C38.3167 16.1439 38.4771 15.9674 38.6605 15.5676C38.8555 15.1796 38.7177 14.7798 38.5803 14.4858C38.4428 14.1918 37.2968 11.3228 36.8269 10.159Z" fill="#0DCF7D"/>
</g>
<path d="M5.62443 65.112C4.75643 65.112 3.96309 64.9347 3.24443 64.58C2.5351 64.216 1.95176 63.6467 1.49443 62.872C1.03709 62.0973 0.808428 61.1733 0.808428 60.1C0.808428 58.5133 1.27509 57.2813 2.20843 56.404C3.14176 55.5267 4.28043 55.088 5.62443 55.088C6.75376 55.088 7.7011 55.3773 8.46643 55.956C9.23176 56.5253 9.7031 57.3 9.88043 58.28L8.25643 58.63C8.11643 57.9767 7.81309 57.4633 7.34643 57.09C6.87976 56.7073 6.30576 56.516 5.62443 56.516C4.70043 56.516 3.94443 56.8333 3.35643 57.468C2.76843 58.0933 2.47443 58.9707 2.47443 60.1C2.47443 61.2293 2.76376 62.1067 3.34243 62.732C3.93043 63.3573 4.6911 63.67 5.62443 63.67C6.30576 63.67 6.87043 63.4973 7.31843 63.152C7.76643 62.8067 8.06976 62.3213 8.22843 61.696L9.86643 62.046C9.62376 62.998 9.1291 63.7493 8.38243 64.3C7.63576 64.8413 6.71643 65.112 5.62443 65.112ZM11.2896 65V55.088H12.8156V59.162C13.3103 58.2753 14.0803 57.832 15.1256 57.832C15.9283 57.832 16.5676 58.0653 17.0436 58.532C17.5289 58.9893 17.7716 59.6007 17.7716 60.366V65H16.2456V60.716C16.2456 60.2493 16.1056 59.8807 15.8256 59.61C15.5549 59.3393 15.1816 59.204 14.7056 59.204C14.1176 59.204 13.6556 59.4467 13.3196 59.932C12.9836 60.4173 12.8156 61.0893 12.8156 61.948V65H11.2896ZM22.2491 57.832C23.1638 57.832 23.8964 58.0793 24.4471 58.574C24.9978 59.0593 25.2731 59.736 25.2731 60.604V65H23.7751V63.922C23.5698 64.2767 23.2664 64.566 22.8651 64.79C22.4638 65.0047 22.0298 65.112 21.5631 65.112C20.8631 65.112 20.2938 64.916 19.8551 64.524C19.4164 64.132 19.1971 63.6327 19.1971 63.026C19.1971 61.682 20.2798 60.898 22.4451 60.674L23.7751 60.534V60.436C23.7751 60.0067 23.6351 59.666 23.3551 59.414C23.0844 59.162 22.7158 59.036 22.2491 59.036C21.8198 59.036 21.4651 59.1573 21.1851 59.4C20.9051 59.6333 20.7418 59.96 20.6951 60.38L19.3231 60.128C19.4351 59.4373 19.7618 58.882 20.3031 58.462C20.8444 58.042 21.4931 57.832 22.2491 57.832ZM21.8711 63.936C22.4591 63.936 22.9211 63.754 23.2571 63.39C23.5931 63.026 23.7658 62.55 23.7751 61.962V61.668L22.4311 61.822C21.2738 61.9527 20.6951 62.34 20.6951 62.984C20.6951 63.264 20.8024 63.4927 21.0171 63.67C21.2318 63.8473 21.5164 63.936 21.8711 63.936ZM30.9753 64.944C30.6393 65.056 30.2659 65.112 29.8553 65.112C29.1553 65.112 28.5906 64.916 28.1613 64.524C27.7413 64.132 27.5313 63.5487 27.5313 62.774V59.246H26.2993V57.944H27.5313V55.844H29.0573V57.944H30.8773V59.246H29.0573V62.69C29.0573 63.0353 29.1413 63.3013 29.3093 63.488C29.4866 63.6653 29.7246 63.754 30.0233 63.754C30.3593 63.754 30.6439 63.698 30.8773 63.586L30.9753 64.944ZM37.2496 65L35.0656 57.944H36.6196L37.9496 62.872L39.4756 57.944H40.8896L42.4016 62.872L43.7316 57.944H45.2856L43.1156 65H41.7016L40.1756 60.086L38.6496 65H37.2496ZM47.278 56.768C46.998 56.768 46.7647 56.6747 46.578 56.488C46.3914 56.292 46.298 56.0587 46.298 55.788C46.298 55.508 46.3914 55.2747 46.578 55.088C46.7647 54.892 46.998 54.794 47.278 54.794C47.5674 54.794 47.8054 54.892 47.992 55.088C48.188 55.2747 48.286 55.508 48.286 55.788C48.286 56.0587 48.188 56.292 47.992 56.488C47.8054 56.6747 47.5674 56.768 47.278 56.768ZM46.522 65V57.944H48.048V65H46.522ZM53.862 64.944C53.526 65.056 53.1526 65.112 52.742 65.112C52.042 65.112 51.4773 64.916 51.048 64.524C50.628 64.132 50.418 63.5487 50.418 62.774V59.246H49.186V57.944H50.418V55.844H51.944V57.944H53.764V59.246H51.944V62.69C51.944 63.0353 52.028 63.3013 52.196 63.488C52.3733 63.6653 52.6113 63.754 52.91 63.754C53.246 63.754 53.5306 63.698 53.764 63.586L53.862 64.944ZM55.3951 65V55.088H56.9211V59.162C57.4158 58.2753 58.1858 57.832 59.2311 57.832C60.0338 57.832 60.6731 58.0653 61.1491 58.532C61.6344 58.9893 61.8771 59.6007 61.8771 60.366V65H60.3511V60.716C60.3511 60.2493 60.2111 59.8807 59.9311 59.61C59.6604 59.3393 59.2871 59.204 58.8111 59.204C58.2231 59.204 57.7611 59.4467 57.4251 59.932C57.0891 60.4173 56.9211 61.0893 56.9211 61.948V65H55.3951ZM70.9079 65.112C69.7505 65.112 68.8265 64.7993 68.1359 64.174C67.4452 63.5393 67.0999 62.6527 67.0999 61.514V55.2H68.6539V61.542C68.6539 62.214 68.8592 62.7367 69.2699 63.11C69.6805 63.4833 70.2265 63.67 70.9079 63.67C71.5892 63.67 72.1305 63.4833 72.5319 63.11C72.9425 62.7367 73.1479 62.214 73.1479 61.542V55.2H74.7019V61.514C74.7019 62.6527 74.3565 63.5393 73.6659 64.174C72.9752 64.7993 72.0559 65.112 70.9079 65.112ZM79.7658 65.112C78.8138 65.112 77.9831 64.8273 77.2738 64.258C76.5738 63.6887 76.1538 62.956 76.0138 62.06L77.5118 61.598C77.5958 62.2233 77.8525 62.7273 78.2818 63.11C78.7111 63.4927 79.2245 63.684 79.8218 63.684C80.4005 63.684 80.8625 63.558 81.2078 63.306C81.5625 63.054 81.7398 62.718 81.7398 62.298C81.7398 61.9433 81.6045 61.6447 81.3338 61.402C81.0725 61.1593 80.7411 60.982 80.3398 60.87C79.9478 60.7487 79.5185 60.6133 79.0518 60.464C78.5945 60.3053 78.1651 60.1373 77.7638 59.96C77.3718 59.7827 77.0405 59.5027 76.7698 59.12C76.5085 58.7373 76.3778 58.2707 76.3778 57.72C76.3778 56.9453 76.6951 56.3153 77.3298 55.83C77.9645 55.3353 78.7671 55.088 79.7378 55.088C80.6618 55.088 81.4505 55.312 82.1038 55.76C82.7571 56.208 83.1538 56.8007 83.2938 57.538L81.8238 58.14C81.7211 57.636 81.4831 57.2393 81.1098 56.95C80.7458 56.6607 80.2885 56.516 79.7378 56.516C79.2058 56.516 78.7858 56.6233 78.4778 56.838C78.1791 57.0527 78.0298 57.3467 78.0298 57.72C78.0298 58.028 78.1605 58.28 78.4218 58.476C78.6925 58.672 79.0238 58.8167 79.4158 58.91C79.8171 58.994 80.2511 59.1107 80.7178 59.26C81.1845 59.4093 81.6138 59.582 82.0058 59.778C82.4071 59.9647 82.7385 60.2727 82.9998 60.702C83.2705 61.1313 83.4058 61.654 83.4058 62.27C83.4058 63.1287 83.0745 63.8193 82.4118 64.342C81.7491 64.8553 80.8671 65.112 79.7658 65.112Z" fill="white"/>
<defs>
<clipPath id="clip0_89_661">
<rect x="22.7764" width="39" height="40" fill="white"/>
</clipPath>
</defs>
</svg>
